<?xml version="1.0" standalone="no"?>
<!DOCTYPE svg PUBLIC "-//W3C//DTD SVG 20010904//EN"
 "http://www.w3.org/TR/2001/REC-SVG-20010904/DTD/svg10.dtd">
<svg version="1.0" xmlns="http://www.w3.org/2000/svg"
 width="100.000000pt" height="100.000000pt" viewBox="0 0 100.000000 100.000000"
 preserveAspectRatio="xMidYMid meet">

<g transform="translate(0.000000,100.000000) scale(0.100000,-0.100000)"
fill="#000000" stroke="none">
<path d="M442 889 c-123 -21 -240 -111 -296 -229 -28 -59 -31 -74 -31 -165 0
-93 2 -105 33 -167 129 -262 458 -311 655 -98 76 81 101 147 101 265 0 117
-25 184 -99 264 -66 70 -149 116 -235 130 -36 6 -67 10 -70 10 -3 -1 -29 -5
-58 -10z m201 -270 c4 -29 9 -54 12 -57 3 -3 26 4 51 16 73 36 104 12 104 -81
0 -23 4 -48 9 -56 13 -21 31 -4 31 30 0 18 4 28 10 24 17 -11 11 -64 -11 -86
-27 -27 -70 -22 -86 11 -7 14 -13 45 -13 70 0 63 -9 73 -49 59 -36 -13 -36
-11 -11 -100 18 -62 10 -79 -38 -79 -22 0 -53 5 -71 11 -29 10 -33 9 -52 -15
-22 -28 -57 -34 -77 -14 -7 7 -12 28 -12 48 l0 35 -23 -40 c-18 -33 -28 -40
-52 -40 -22 0 -33 6 -40 23 -9 19 -17 22 -71 22 -94 0 -143 51 -97 102 23 26
99 23 190 -7 42 -14 78 -23 82 -19 3 3 6 46 5 95 l-1 89 29 0 28 0 0 -90 c0
-49 2 -90 4 -90 2 0 19 6 38 14 31 14 35 20 46 77 6 34 9 66 5 72 -7 11 15 27
38 27 12 0 18 -13 22 -51z m-268 -64 c0 -22 -31 -33 -47 -17 -17 17 -1 44 24
40 15 -2 23 -10 23 -23z"/>
<path d="M587 557 c-5 -38 -5 -39 15 -32 10 4 13 15 10 31 -7 37 -19 38 -25 1z"/>
<path d="M594 500 c-14 -6 -23 -20 -27 -42 -6 -43 -2 -48 39 -48 l36 0 -7 43
c-9 51 -14 57 -41 47z"/>
<path d="M204 479 c-12 -19 34 -49 75 -49 34 0 37 2 35 28 -1 25 -4 27 -51 30
-32 2 -54 -2 -59 -9z"/>
<path d="M512 468 c-26 -13 -25 -28 5 -39 18 -6 23 -3 32 22 11 32 3 36 -37
17z"/>
<path d="M380 450 c0 -5 5 -10 10 -10 6 0 10 5 10 10 0 6 -4 10 -10 10 -5 0
-10 -4 -10 -10z"/>
<path d="M393 423 c-15 -5 -18 -33 -4 -33 8 0 25 30 19 35 -2 1 -9 0 -15 -2z"/>
<path d="M496 395 c4 -8 10 -12 15 -9 14 8 10 24 -6 24 -9 0 -12 -6 -9 -15z"/>
</g>
</svg>
